HIERARCHY
ROOT Hips
{
	OFFSET 0.00000 0.00000 0.00000
	CHANNELS 6 Xposition Yposition Zposition Zrotation Yrotation Xrotation 
	JOINT LHipJoint
	{
		OFFSET 0 0 0
		CHANNELS 3 Zrotation Yrotation Xrotation
		JOINT LeftHip
		{
			OFFSET 1.62329 -1.80800 0.67318
			CHANNELS 3 Zrotation Yrotation Xrotation
			JOINT LeftKnee
			{
				OFFSET 2.57139 -7.06484 0.00000
				CHANNELS 3 Zrotation Yrotation Xrotation
				JOINT LeftAnkle
				{
					OFFSET 2.52017 -6.92413 0.00000
					CHANNELS 3 Zrotation Yrotation Xrotation
					JOINT LeftToe
					{
						OFFSET 0.23295 -0.64001 2.10214
						CHANNELS 3 Zrotation Yrotation Xrotation
						End Site
						{
							OFFSET 0.00000 -0.00000 1.10139
						}
					}
				}
			}
		}
	}
	JOINT RHipJoint
	{
		OFFSET 0 0 0
		CHANNELS 3 Zrotation Yrotation Xrotation
		JOINT RightHip
		{
			OFFSET -1.48061 -1.80800 0.67318
			CHANNELS 3 Zrotation Yrotation Xrotation
			JOINT RightKnee
			{
				OFFSET -2.63258 -7.23296 0.00000
				CHANNELS 3 Zrotation Yrotation Xrotation
				JOINT RightAnkle
				{
					OFFSET -2.54779 -7.00000 0.00000
					CHANNELS 3 Zrotation Yrotation Xrotation
					JOINT RightToe
					{
						OFFSET -0.23067 -0.63376 2.12161
						CHANNELS 3 Zrotation Yrotation Xrotation
						End Site
						{
							OFFSET -0.00000 -0.00000 1.11000
						}
					}
				}
			}
		}
	}
	JOINT lowerback
	{
		OFFSET 0 0 0
		CHANNELS 3 Zrotation Yrotation Xrotation
		JOINT Chest
		{
			OFFSET -0.02108 2.07573 -0.16981
			CHANNELS 3 Zrotation Yrotation Xrotation
			JOINT Chest2
			{
				OFFSET 0.05070 2.08439 -0.03141
				CHANNELS 3 Zrotation Yrotation Xrotation
				JOINT lowerneck
				{
					OFFSET 0 0 0
					CHANNELS 3 Zrotation Yrotation Xrotation
					JOINT Neck
					{
						OFFSET -0.10731 1.60408 0.31370
						CHANNELS 3 Zrotation Yrotation Xrotation
						JOINT Head
						{
							OFFSET 0.08411 1.65679 -0.30822
							CHANNELS 3 Zrotation Yrotation Xrotation
							End Site
							{
								OFFSET 0.03911 1.69149 -0.14146
							}
						}
					}
				}
				JOINT LeftCollar
				{
					OFFSET 0 0 0
					CHANNELS 3 Zrotation Yrotation Xrotation
					JOINT LeftShoulder
					{
						OFFSET 3.52315 0.73219 -0.54694
CHANNELS 3 Zrotation Xrotation Yrotation
						JOINT LeftElbow
						{
OFFSET 0 -5.324620 -0.000000
CHANNELS 3 Zrotation Xrotation Yrotation
							JOINT LeftWrist
							{
OFFSET 0 -3.484020 -0.000000
CHANNELS 3 Zrotation Xrotation Yrotation
								JOINT lhand
								{
									OFFSET 0 0 0
CHANNELS 3 Zrotation Xrotation Yrotation
									JOINT LFingers
									{
OFFSET 0 -0.572480 -0.000000
CHANNELS 3 Zrotation Xrotation Yrotation
										End Site
										{
OFFSET 0 -0.461540 -0.000000
										}
									}
								}
								JOINT LThumb
								{
OFFSET 0 0.000000 0.000000
CHANNELS 3 Zrotation Xrotation Yrotation
									End Site
									{
OFFSET 0 -0.468590 0.468590
									}
								}
							}
						}
					}
				}
				JOINT RightCollar
				{
					OFFSET 0 0 0
					CHANNELS 3 Zrotation Yrotation Xrotation
					JOINT RightShoulder
					{
						OFFSET -3.41766 0.93592 -0.10019
CHANNELS 3 Zrotation Xrotation Yrotation
						JOINT RightElbow
						{
OFFSET 0 -5.335890 -0.000000
CHANNELS 3 Zrotation Xrotation Yrotation
							JOINT RightWrist
							{
OFFSET 0 -3.641340 -0.000000
CHANNELS 3 Zrotation Xrotation Yrotation
								JOINT rhand
								{
									OFFSET 0 0 0
CHANNELS 3 Zrotation Xrotation Yrotation
									JOINT RFingers
									{
OFFSET 0 -0.734810 -0.000000
CHANNELS 3 Zrotation Xrotation Yrotation
										End Site
										{
OFFSET 0 -0.592420 -0.000000
										}
									}
								}
								JOINT RThumb
								{
OFFSET 0 0.000000 0.000000
CHANNELS 3 Zrotation Xrotation Yrotation
									End Site
									{
OFFSET 0 -0.601470 0.601470
									}
								}
							}
						}
					}
				}
			}
		}
	}
}
MOTION
Frames: 4
Frame Time: 0.008333333333333333
-0.439454 16.939588 2.687287 544.801755 -126.458222 -546.666262 0.000000 0.000000 0.000000 -20.129376 -6.819930 -5.298649 5.146369 13.546499 41.450767 1.557681 -9.396860 -22.381896 0.703680 -5.361836 -14.943569 0.000000 0.000000 0.000000 2.088927 -4.080520 -17.706900 -8.806142 -16.681295 55.417211 0.295568 13.388438 -5.097716 -0.035541 -1.189232 3.269852 -3.272767 -0.113852 6.674368 4.919136 -0.253966 -0.177415 7.041094 -0.027600 -3.903082 -17.973901 -6.730957 -18.082423 12.176094 -5.648734 -12.677896 6.419308 -2.234811 -0.120196 0.000000 0.000000 0.000000 120.569788 -36.892093 29.566773 74.613177 -59.080584 46.716265 15.377053 3.384001 -17.943289 0.000000 0.000000 0.000000 -7.125000 0.000000 0.000000 -12.242354 48.157386 0.968432 0.000000 0.000000 0.000000 -11.985209 -0.644485 35.890456 -45.359056 -50.943057 -22.517262 -19.656187 -9.231405 -9.606705 0.000000 0.000000 0.000000 7.125000 0.000000 0.000000 5.216792 19.811984 3.153062
-0.373478 17.137284 2.812649 547.273995 -123.961601 -548.613613 0.000000 0.000000 0.000000 -21.964754 -6.247759 -3.289410 4.250268 12.485523 37.473027 1.241618 -8.711436 -19.966449 0.833319 -5.823102 -16.272165 0.000000 0.000000 0.000000 0.907273 1.328788 -19.323554 -9.425437 -17.073627 57.549749 0.050336 6.929925 -3.532543 -0.011626 -0.697223 1.916042 -2.827682 -0.292953 5.938432 5.126476 -0.461841 0.034439 7.005364 -0.165607 -3.238720 -17.702147 -5.632611 -18.485708 11.200411 -4.253006 -11.483747 6.136844 -1.569309 0.043758 0.000000 0.000000 0.000000 103.022010 -39.047393 8.978126 83.838272 -59.855685 54.666400 16.850186 6.863335 -18.591738 0.000000 0.000000 0.000000 -7.125000 0.000000 0.000000 -11.064526 49.024553 1.110554 0.000000 0.000000 0.000000 -17.545143 4.077153 26.329441 -46.504841 -51.484593 -23.410416 -22.407060 -9.785865 -8.623283 0.000000 0.000000 0.000000 7.125000 0.000000 0.000000 3.228348 20.671006 1.883868
-0.322813 17.239160 2.902044 549.648317 -120.786598 -550.727574 0.000000 0.000000 0.000000 -23.354455 -3.514172 -1.509377 3.384699 11.292657 33.273995 1.143140 -7.282918 -19.098443 0.810033 -5.743571 -16.042297 0.000000 0.000000 0.000000 0.766385 3.382374 -23.182183 -10.490900 -17.676566 61.116428 -0.142442 3.549981 -6.755991 -0.094662 1.975519 -5.438307 -2.897285 -0.980615 6.018590 5.732687 -1.399338 0.361116 7.770878 -0.660412 -2.794024 -16.721239 -3.816031 -18.717697 9.495706 -2.126600 -11.464902 5.570443 -0.582697 -0.276178 0.000000 0.000000 0.000000 81.304474 -36.033352 -9.730786 87.650789 -59.979087 57.965695 15.794737 8.637643 -20.192704 0.000000 0.000000 0.000000 -7.125000 0.000000 0.000000 -12.636927 50.468448 1.727519 0.000000 0.000000 0.000000 -23.939315 4.238747 19.312385 -46.263088 -51.372311 -23.221403 -22.427868 -6.847449 -8.603999 0.000000 0.000000 0.000000 7.125000 0.000000 0.000000 3.212839 20.690371 1.873646
-0.323961 17.295202 2.913540 552.234992 -118.662534 -552.759174 0.000000 0.000000 0.000000 -24.239591 -1.127659 -1.594065 3.066261 10.801522 31.613407 1.050576 -6.978571 -18.299426 0.887824 -6.006113 -16.802037 0.000000 0.000000 0.000000 1.761426 3.317473 -26.321327 -10.699157 -17.784598 61.800598 -0.254299 8.614555 -10.101957 -0.010555 0.479322 -1.317711 -4.016540 -1.655271 6.382859 6.165094 -2.388624 0.455626 8.986639 -1.154746 -2.681422 -15.445850 -2.192323 -19.165973 8.326648 -0.256128 -11.172678 5.090237 0.274003 -0.380069 0.000000 0.000000 0.000000 58.665816 -30.821331 -22.885948 85.671529 -59.928651 56.252345 17.642819 8.065355 -19.149031 0.000000 0.000000 0.000000 -7.125000 0.000000 0.000000 -10.490824 49.709573 1.230067 0.000000 0.000000 0.000000 -29.538392 2.405117 12.913355 -43.796811 -50.164522 -21.311045 -25.197760 -6.165031 -7.810040 0.000000 0.000000 0.000000 7.125000 0.000000 0.000000 1.185749 21.360908 0.672811
